<svg xmlns="http://www.w3.org/2000/svg" role="img" viewBox="-25.56 -25.56 1329.12 253.12"><g clip-path="url(#clip0_1157_30)"><path fill="#DFCB1D" d="M255 162H411V177H255zM1123 162H1279V177H1123z"/><path d="M303.869 77.7123C308.776 77.8096 313.637 76.7387 318.049 74.5879 322.461 72.437 326.298 69.2679 329.244 65.342L342.883 79.2982C332.099 91.3514 319.728 97.3779 305.138 97.3779 298.554 97.6291 291.986 96.5508 285.828 94.2074 279.67 91.8641 274.047 88.3037 269.296 83.7389 264.669 79.2817 261.034 73.8985 258.629 67.941 256.224 61.9835 255.103 55.5857 255.339 49.1654 255.159 42.6765 256.335 36.2214 258.793 30.2133 261.251 24.2052 264.936 18.7765 269.613 14.2748 274.643 9.52866 280.583 5.85096 287.074 3.46365 293.565 1.07635 300.472.0289452 307.379.384658 314.285.740371 321.048 2.49182 327.26 5.53331 333.471 8.5748 339.001 12.8433 343.518 18.0811L330.513 32.9889C327.648 29.1314 323.916 26.0019 319.618 23.853 315.32 21.7041 310.577 20.5961 305.772 20.6186 298.282 20.4744 291.021 23.1976 285.472 28.231 282.593 30.8759 280.333 34.1233 278.852 37.7419 277.372 41.3604 276.708 45.2609 276.908 49.1654 276.708 53.0616 277.308 56.9575 278.672 60.6126 280.036 64.2677 282.134 67.6045 284.838 70.417 290.057 75.126 296.84 77.7262 303.869 77.7123V77.7123zM359.375 96.109V1.9043H380.309V77.3949H420.592V96.109H359.375zM512.574 83.1045C503.043 92.0701 490.451 97.062 477.366 97.062 464.281 97.062 451.689 92.0701 442.158 83.1045 437.511 78.6474 433.841 73.2718 431.384 67.3195 428.927 61.3673 427.735 54.9688 427.885 48.531 427.706 42.0893 428.884 35.682 431.343 29.7255 433.802 23.769 437.487 18.3966 442.158 13.9576 451.689 4.99194 464.281 0 477.366 0 490.451 0 503.043 4.99194 512.574 13.9576 517.222 18.4147 520.891 23.7903 523.348 29.7425 525.806 35.6947 526.997 42.0932 526.848 48.531 527.027 54.9727 525.849 61.38 523.39 67.3366 520.931 73.2931 517.246 78.6655 512.574 83.1045V83.1045zM505.279 48.531C505.337 40.5606 502.393 32.8603 497.032 26.9623 494.507 24.1674 491.424 21.9333 487.982 20.4041 484.54 18.875 480.815 18.0849 477.049 18.0849 473.283 18.0849 469.558 18.875 466.116 20.4041 462.674 21.9333 459.591 24.1674 457.066 26.9623 451.644 32.8227 448.69 40.5481 448.819 48.531 448.761 56.5014 451.705 64.2017 457.066 70.0998 459.591 72.8946 462.674 75.1288 466.116 76.6579 469.558 78.187 473.283 78.9771 477.049 78.9771 480.815 78.9771 484.54 78.187 487.982 76.6579 491.424 75.1288 494.507 72.8946 497.032 70.0998 499.779 67.2388 501.924 63.8558 503.341 60.151 504.757 56.4462 505.416 52.495 505.279 48.531V48.531zM569.671 72.0024C571.346 74.1717 573.515 75.9085 575.998 77.0673 578.482 78.2262 581.206 78.7735 583.945 78.6634 586.642 78.8066 589.332 78.2721 591.77 77.1086 594.208 75.9451 596.316 74.1896 597.901 72.0024 601.543 66.8216 603.332 60.5632 602.976 54.2399V2.22119H623.91V54.8743C623.91 68.5134 620.104 78.9805 612.491 86.2759 608.659 89.951 604.133 92.8255 599.177 94.7316 594.221 96.6377 588.935 97.5372 583.627 97.3774 578.272 97.5373 572.938 96.639 567.931 94.734 562.923 92.829 558.341 89.9547 554.446 86.2759 546.834 78.9805 543.027 68.5134 543.027 54.8743V2.22119H563.962V54.2399C563.955 60.613 565.952 66.8268 569.671 72.0024V72.0024zM717.798 14.2746C726.68 22.5215 731.438 33.9402 731.438 48.5309 731.438 63.1215 726.997 74.8574 718.433 83.4215 709.869 91.9855 696.23 96.109 678.467 96.109H645.797V1.9043H679.102C695.913 1.9043 708.917 6.02773 717.798 14.2746zM702.573 70.4168C707.648 65.659 710.186 58.3637 710.186 49.1652 710.186 39.9668 707.648 32.6715 702.573 27.9137 697.498 23.1559 689.569 20.3012 678.784 20.3012H667.048V77.7121H680.37C688.423 78.1411 696.344 75.5384 702.573 70.4168V70.4168zM851.018 1.9043H871.952V96.109H851.018L805.977 37.1121V96.109H785.043V1.9043H804.709L851.018 62.4871V1.9043zM962.347 96.109L953.466 75.809H913.818L904.936 96.109H882.416L923.016 1.9043H943.316L983.916 96.109H962.347zM934.118 30.134L922.382 57.4121H945.853L934.118 30.134zM1028.96 20.3009V96.4259H1008.02V20.3009H981.381V2.22119H1055.92V20.3009H1028.96zM1070.83 1.9043H1091.76V96.109H1070.83V1.9043zM1149.8 61.8527L1173.91 1.9043H1196.75L1159 96.109H1141.24L1103.49 1.9043H1126.33L1149.8 61.8527zM1276.91 1.9043V20.6184H1229.97V39.9668H1272.16V58.0465H1229.97V77.7121H1278.5V96.4261H1209.04V2.22148H1276.91V1.9043zM28.8621 135.218H-.00195312V203.001H67.559V173.852H28.8621V135.218zM174.136 135.535V173.852H135.439V203.001H203V135.218H173.819L174.136 135.535zM-.00195312 67.783H29.1793L28.8621 67.4658V29.1495H67.559V0H-.00195312V67.783zM135.439 0V29.1495H174.136V67.783H203V0H135.439z"/><path d="M131.627 67.783L92.9297 29.1495H135.433V0H67.5547V29.1495L106.252 67.783H131.627zM96.7359 135.218H71.3609L103.397 167.222 109.741 173.852H67.5547V203.001H135.433V173.534L116.084 154.503 96.7359 135.218zM174.136 67.7837V109.906L167.475 103.245 135.439 71.241V96.9015L154.471 115.933 173.819 135.249H203V67.7837H174.136zM67.559 106.1L29.1793 67.7837H-.00195312V135.218H28.8621V93.0952L67.559 131.76V106.1z" opacity=".65"/><path d="M461.272 196.163C456.247 196.163 451.578 194.945 447.265 192.509C442.951 190.022 439.5 186.698 436.912 182.536C434.374 178.375 433.105 173.883 433.105 169.062C433.105 164.241 434.374 159.775 436.912 155.664C439.5 151.503 442.951 148.204 447.265 145.768C451.578 143.281 456.247 142.038 461.272 142.038C466.245 142.038 470.889 143.281 475.202 145.768C479.516 148.204 482.942 151.503 485.479 155.664C488.068 159.775 489.362 164.241 489.362 169.062C489.362 173.883 488.068 178.375 485.479 182.536C482.942 186.698 479.516 190.022 475.202 192.509C470.889 194.945 466.245 196.163 461.272 196.163ZM461.272 184.363C463.911 184.363 466.347 183.678 468.58 182.308C470.813 180.887 472.589 179.009 473.908 176.675C475.279 174.34 475.964 171.803 475.964 169.062C475.964 166.372 475.279 163.86 473.908 161.526C472.589 159.191 470.813 157.339 468.58 155.969C466.347 154.548 463.911 153.837 461.272 153.837C458.633 153.837 456.171 154.548 453.887 155.969C451.654 157.339 449.853 159.191 448.483 161.526C447.163 163.86 446.503 166.372 446.503 169.062C446.503 171.803 447.163 174.34 448.483 176.675C449.853 179.009 451.654 180.887 453.887 182.308C456.171 183.678 458.633 184.363 461.272 184.363ZM500.337 142.951H527.666C530.863 142.951 533.705 143.535 536.192 144.702C538.678 145.819 540.607 147.392 541.977 149.422C543.398 151.401 544.109 153.634 544.109 156.121C544.109 158.709 543.449 161.018 542.129 163.048C540.861 165.027 539.084 166.601 536.801 167.768C539.846 169.087 542.205 170.94 543.88 173.325C545.606 175.66 546.468 178.248 546.468 181.09C546.468 183.83 545.707 186.292 544.185 188.474C542.662 190.605 540.556 192.28 537.866 193.498C535.177 194.665 532.132 195.249 528.731 195.249H500.337V142.951ZM524.544 163.657C526.321 163.657 527.792 163.2 528.96 162.287C530.127 161.373 530.711 160.206 530.711 158.785C530.711 157.364 530.127 156.222 528.96 155.36C527.792 154.446 526.321 153.989 524.544 153.989H513.278V163.657H524.544ZM526.448 184.211C528.376 184.211 529.949 183.729 531.167 182.765C532.436 181.75 533.07 180.481 533.07 178.958C533.07 177.436 532.436 176.192 531.167 175.228C529.949 174.213 528.376 173.706 526.448 173.706H513.278V184.211H526.448ZM577.721 196.163C573.052 196.163 568.662 195.427 564.551 193.955C560.44 192.432 556.786 190.25 553.589 187.408L560.973 178.654C566.353 183.069 572.087 185.277 578.177 185.277C580.563 185.277 582.39 184.845 583.658 183.983C584.927 183.12 585.562 181.953 585.562 180.481C585.562 179.466 585.257 178.654 584.648 178.045C584.039 177.436 583.075 176.928 581.755 176.522C580.487 176.116 578.406 175.558 575.513 174.848C571.199 173.883 567.672 172.843 564.932 171.726C562.191 170.559 560.009 168.961 558.385 166.931C556.812 164.85 556.025 162.135 556.025 158.785C556.025 155.486 556.862 152.568 558.537 150.031C560.212 147.493 562.546 145.539 565.541 144.169C568.586 142.748 572.062 142.038 575.97 142.038C584.344 142.038 591.423 144.423 597.209 149.193L590.586 158.481C588.201 156.654 585.714 155.283 583.126 154.37C580.588 153.406 578.101 152.924 575.665 152.924C573.635 152.924 572.037 153.355 570.869 154.218C569.702 155.08 569.119 156.172 569.119 157.491C569.119 158.557 569.423 159.42 570.032 160.079C570.692 160.739 571.732 161.323 573.153 161.83C574.574 162.287 576.655 162.82 579.395 163.429C583.709 164.342 587.236 165.408 589.977 166.626C592.717 167.793 594.849 169.392 596.371 171.422C597.894 173.401 598.655 175.964 598.655 179.111C598.655 182.612 597.792 185.657 596.067 188.246C594.392 190.783 591.981 192.737 588.835 194.107C585.688 195.477 581.984 196.163 577.721 196.163ZM622.409 154.598V162.744H647.987V174.391H622.409V183.602H650.575V195.249H609.392V142.951H650.575V154.598H622.409ZM692.121 195.249L680.626 178.882H675.45V195.249H662.432V142.951H686.716C690.523 142.951 693.923 143.712 696.917 145.235C699.962 146.757 702.322 148.889 703.997 151.629C705.722 154.319 706.585 157.415 706.585 160.917C706.585 164.875 705.494 168.326 703.312 171.27C701.18 174.213 698.237 176.345 694.481 177.664L706.889 195.249H692.121ZM675.45 167.007H685.574C687.807 167.007 689.634 166.448 691.055 165.332C692.476 164.215 693.187 162.744 693.187 160.917C693.187 159.09 692.476 157.618 691.055 156.501C689.634 155.385 687.807 154.827 685.574 154.827H675.45V167.007ZM769.844 142.951L749.214 195.249H734.522L713.892 142.951H728.508L741.906 176.675L755.228 142.951H769.844ZM813.544 187.256H793.143L789.945 195.249H775.329L796.035 142.951H810.651L831.357 195.249H816.741L813.544 187.256ZM809.662 177.436L803.343 161.373L797.025 177.436H809.662ZM840.883 142.951H868.212C871.409 142.951 874.251 143.535 876.738 144.702C879.225 145.819 881.153 147.392 882.523 149.422C883.944 151.401 884.655 153.634 884.655 156.121C884.655 158.709 883.995 161.018 882.676 163.048C881.407 165.027 879.631 166.601 877.347 167.768C880.392 169.087 882.752 170.94 884.427 173.325C886.152 175.66 887.015 178.248 887.015 181.09C887.015 183.83 886.254 186.292 884.731 188.474C883.209 190.605 881.102 192.28 878.413 193.498C875.723 194.665 872.678 195.249 869.278 195.249H840.883V142.951ZM865.091 163.657C866.867 163.657 868.339 163.2 869.506 162.287C870.673 161.373 871.257 160.206 871.257 158.785C871.257 157.364 870.673 156.222 869.506 155.36C868.339 154.446 866.867 153.989 865.091 153.989H853.824V163.657H865.091ZM866.994 184.211C868.922 184.211 870.496 183.729 871.714 182.765C872.982 181.75 873.617 180.481 873.617 178.958C873.617 177.436 872.982 176.192 871.714 175.228C870.496 174.213 868.922 173.706 866.994 173.706H853.824V184.211H866.994ZM897.789 142.951H910.807V195.249H897.789V142.951ZM962.728 183.602V195.249H924.513V142.951H937.531V183.602H962.728ZM972.945 142.951H985.962V195.249H972.945V142.951ZM1012 154.598H996.167V142.951H1040.93V154.598H1025.02V195.249H1012V154.598ZM1067.13 177.207L1046.89 142.951H1061.88L1073.68 165.027L1086.01 142.951H1100.48L1080.23 177.207V195.249H1067.13V177.207Z"/></g><defs><clipPath id="clip0_1157_30"><path fill="#fff" d="M0 0H1279.22V203H0z"/></clipPath></defs></svg>